<?xml version="1.0" encoding="UTF-8"?>
<svg version="1.1" xmlns="http://www.w3.org/2000/svg" width="209" height="182">
<path d="M0 0 C3.72098149 0.62016358 4.4457775 2.43224391 6.625 5.4375 C7.72199318 7.1921897 8.78069715 8.9712616 9.8046875 10.76953125 C10.69329468 12.32124023 10.69329468 12.32124023 11.59985352 13.90429688 C12.22690186 15.00837891 12.8539502 16.11246094 13.5 17.25 C14.49872091 18.99502731 15.49745324 20.74004828 16.49702454 22.48458862 C17.18166073 23.67972632 17.86580991 24.87514312 18.54948425 26.0708313 C22.06225893 32.21242965 25.62043381 38.32729248 29.1875 44.4375 C30.02547119 45.8757312 30.02547119 45.8757312 30.88037109 47.34301758 C31.93968918 49.15819496 33.00298683 50.97105745 34.07080078 52.78125 C35.14961763 54.62503374 36.2092115 56.48014674 37.25341797 58.34375 C37.77693848 59.2615625 38.30045898 60.179375 38.83984375 61.125 C39.30382568 61.95386719 39.76780762 62.78273437 40.24584961 63.63671875 C40.70096924 64.23097656 41.15608887 64.82523437 41.625 65.4375 C45.04744001 65.4375 45.8541912 64.86044233 48.6171875 62.98046875 C49.39860107 62.45018066 50.18001465 61.91989258 50.98510742 61.37353516 C51.81502197 60.79651855 52.64493652 60.21950195 53.5 59.625 C54.35118408 59.0376709 55.20236816 58.4503418 56.0793457 57.84521484 C63.31598281 52.78509719 70.04458746 47.31487702 76.625 41.4375 C78.14441986 40.08174756 79.66505526 38.72735476 81.1875 37.375 C82.05568359 36.58416016 82.05568359 36.58416016 82.94140625 35.77734375 C84.73901242 34.34676621 86.54051657 33.39079767 88.625 32.4375 C88.625 31.7775 88.625 31.1175 88.625 30.4375 C90 28.8125 90 28.8125 91.625 27.4375 C92.285 27.4375 92.945 27.4375 93.625 27.4375 C93.9653125 26.4784375 93.9653125 26.4784375 94.3125 25.5 C95.625 23.4375 95.625 23.4375 98.1875 22.625 C98.991875 22.563125 99.79625 22.50125 100.625 22.4375 C101.625 23.4375 101.625 23.4375 101.62695312 25.64819336 C100.99791278 34.03238259 99.25871806 41.88073148 97.125 50 C96.64353516 51.88428711 96.64353516 51.88428711 96.15234375 53.80664062 C93.85880782 62.73607655 93.85880782 62.73607655 92.625 66.4375 C93.924375 66.581875 95.22375 66.72625 96.5625 66.875 C100.5 67.3125 100.5 67.3125 101.625 68.4375 C101.2916439 75.68585824 98.80345062 81.77881325 96.0625 88.4375 C95.61430908 89.5409375 95.16611816 90.644375 94.7043457 91.78125 C90.04352222 103.10547183 84.97447343 114.2772781 78.2421875 124.54296875 C77.32509322 127.35809993 78.41722609 128.7683173 79.625 131.4375 C80.72041616 133.48298863 81.85015619 135.51027554 83.00390625 137.5234375 C83.49654213 138.38503479 83.49654213 138.38503479 83.99913025 139.26403809 C84.6985742 140.48580124 85.39958661 141.70666762 86.10205078 142.92669678 C87.19420786 144.82415389 88.2810564 146.72457654 89.3671875 148.62548828 C92.40402365 153.9282537 95.45154433 159.21903751 98.68359375 164.40625 C99.10632568 165.0863916 99.52905762 165.7665332 99.96459961 166.46728516 C101.03624972 168.17137343 102.12668171 169.86361161 103.21875 171.5546875 C104.81087395 174.8185416 105.07457593 176.8511102 104.625 180.4375 C102.0851779 182.9773221 100.47450944 182.67978523 97.01067305 182.70498681 C96.22021857 182.70052537 95.42976409 182.69606392 94.61535645 182.69146729 C93.77793049 182.69458727 92.94050454 182.69770725 92.07770205 182.70092177 C89.25550701 182.70893565 86.43352498 182.702565 83.61132812 182.69628906 C81.59459812 182.69899742 79.5778691 182.70255748 77.56114197 182.70690918 C72.07160725 182.71605391 66.5821474 182.71248036 61.09261131 182.70615101 C55.35865445 182.70110177 49.62470417 182.70577945 43.89074707 182.70892334 C34.25999801 182.71256614 24.62927957 182.70775568 14.99853516 182.69824219 C3.85020954 182.68735705 -7.29804294 182.6908824 -18.44636679 182.701895 C-28.00305354 182.71095896 -37.55971821 182.71225752 -47.11640787 182.70701766 C-52.83078619 182.70389305 -58.54513009 182.70350205 -64.25950623 182.71009064 C-69.63073096 182.71585054 -75.00186102 182.71189216 -80.37307549 182.70030212 C-82.34923075 182.69764825 -84.32539393 182.69843293 -86.3015461 182.70282745 C-88.98959197 182.70825579 -91.6773304 182.70148201 -94.36535645 182.69146729 C-95.55103816 182.69815945 -95.55103816 182.69815945 -96.76067305 182.70498681 C-102.14669991 182.66580009 -102.14669991 182.66580009 -104.375 180.4375 C-104.90616951 175.65109124 -103.93434947 172.97715976 -101.4375 168.9296875 C-100.47831665 167.34788696 -100.47831665 167.34788696 -99.49975586 165.73413086 C-99.15427704 165.17789032 -98.80879822 164.62164978 -98.45285034 164.04855347 C-96.97371046 161.66615786 -95.52420515 159.26621432 -94.07298279 156.866745 C-93.31343719 155.61111194 -92.55248205 154.35633053 -91.79017639 153.10237122 C-87.84139977 146.59601691 -84.06841576 139.99393495 -80.3125 133.375 C-79.31325997 131.6185878 -78.31339575 129.86253198 -77.31347656 128.10650635 C-76.65021132 126.94169143 -75.98712459 125.77677486 -75.32421875 124.61175537 C-71.82116872 118.45782462 -68.28895656 112.32083378 -64.75 106.1875 C-64.13390869 105.11967285 -63.51781738 104.0518457 -62.88305664 102.95166016 C-58.69600086 95.70366512 -54.47740737 88.47451124 -50.25 81.25 C-45.72507019 73.5157476 -41.26831281 65.74724157 -36.875 57.9375 C-28.00975342 42.18545889 -18.88383749 26.58620632 -9.625 11.0625 C-9.12347412 10.21792236 -8.62194824 9.37334473 -8.10522461 8.50317383 C-7.64253174 7.73126709 -7.17983887 6.95936035 -6.703125 6.1640625 C-6.2999707 5.48939941 -5.89681641 4.81473633 -5.48144531 4.11962891 C-3.85953748 1.65384229 -2.95721273 0.54474971 0 0 Z M-1.375 14.4375 C-3.11237064 17.03105689 -4.62853028 19.58184534 -6.125 22.3125 C-7.11283505 24.0666576 -8.10114182 25.82054961 -9.08984375 27.57421875 C-9.6194873 28.52216309 -10.14913086 29.47010742 -10.69482422 30.44677734 C-13.64583865 35.69960019 -16.6712853 40.90943773 -19.6875 46.125 C-20.31970459 47.22110596 -20.95190918 48.31721191 -21.60327148 49.4465332 C-25.94590471 56.97534054 -30.30839063 64.49235442 -34.6875 72 C-35.26105225 72.98395752 -35.83460449 73.96791504 -36.42553711 74.98168945 C-39.09002265 79.54680297 -41.76618538 84.10416754 -44.47265625 88.64453125 C-44.94469482 89.43851318 -45.4167334 90.23249512 -45.90307617 91.05053711 C-46.77565719 92.51591017 -47.65189621 93.97911369 -48.5324707 95.43969727 C-50.66030293 98.71092889 -50.66030293 98.71092889 -51.375 102.4375 C-49.91619891 102.29642253 -48.45796449 102.14947585 -47 102 C-46.18789063 101.91878906 -45.37578125 101.83757812 -44.5390625 101.75390625 C-42.33227195 101.54659886 -42.33227195 101.54659886 -40.375 100.4375 C-40.42140625 101.118125 -40.4678125 101.79875 -40.515625 102.5 C-40.98053751 114.98622166 -38.29028493 126.58712245 -31.44921875 137.10546875 C-30.375 139.4375 -30.375 139.4375 -30.34375 141.77734375 C-31.87699197 145.73241112 -34.45839798 148.60330801 -37.1875 151.8125 C-41.13136533 156.49375872 -44.48802063 161.02703504 -47.375 166.4375 C-43.72883398 164.8614703 -41.10634154 162.60242802 -38.125 160 C-23.95638103 147.93174863 -7.8394735 138.37079296 8.5 129.5625 C9.17732178 129.19302246 9.85464355 128.82354492 10.55249023 128.44287109 C18.53597445 124.21603431 26.48557512 121.12988061 35.625 122.4375 C39.8094463 123.74037108 43.71125681 125.48062841 47.625 127.4375 C49.65082464 123.38585072 49.27250733 118.44688416 47.90625 114.20703125 C45.20888466 108.40987106 42.01952721 105.38705389 36 103 C32.625 101.4375 32.625 101.4375 31.125 98.875 C29.31221909 95.92923101 27.88282987 95.64507443 24.62304688 94.81469727 C21.29487192 94.18639444 17.99676793 94.14461583 14.625 94.1875 C13.49312256 94.19330078 13.49312256 94.19330078 12.33837891 94.19921875 C2.06746595 94.3481625 -8.16135632 95.41039916 -18.375 96.4375 C-18.375 95.7775 -18.375 95.1175 -18.375 94.4375 C-17.10785156 94.19257812 -15.84070313 93.94765625 -14.53515625 93.6953125 C-9.04211441 92.46986734 -3.99392368 90.48059395 1.1875 88.3125 C2.14333984 87.91724121 3.09917969 87.52198242 4.08398438 87.11474609 C12.46870417 83.59961357 20.56695122 79.63756788 28.625 75.4375 C30.62390318 74.43530935 32.62374205 73.43498014 34.625 72.4375 C30.47535868 63.81452784 25.87197914 55.57061919 20.9375 47.375 C19.52142719 45.01422129 18.10787482 42.65194312 16.6953125 40.2890625 C16.34766342 39.70826431 16.00001434 39.12746613 15.64183044 38.52906799 C13.45696197 34.86761417 11.32946685 31.1787859 9.2421875 27.4609375 C8.74162842 26.572854 8.24106934 25.68477051 7.7253418 24.76977539 C6.80349335 23.12567692 5.890454 21.47659895 4.98754883 19.82202148 C3.9494833 17.97806481 2.79828993 16.19850738 1.625 14.4375 C0.635 14.4375 -0.355 14.4375 -1.375 14.4375 Z " fill="#003DA6" transform="translate(104.375,-0.4375)"/>
<path d="M0 0 C5.61 0 11.22 0 17 0 C16.67 1.32 16.34 2.64 16 4 C9.86946489 4.32712342 5.37330889 4.39366878 0 1 C0 0.67 0 0.34 0 0 Z " fill="#003CA8" transform="translate(110,101)"/>
</svg>
